<svg xmlns="http://www.w3.org/2000/svg" height="40" viewBox="0 -960 960 960" width="40"><path d="M192.564-140.001q-25.788 0-44.176-18.388-18.387-18.388-18.387-44.176v-554.87q0-25.788 18.387-44.176 18.388-18.388 44.176-18.388h382.667v50.255H192.564q-4.615 0-8.462 3.847-3.846 3.846-3.846 8.462v554.87q0 4.616 3.846 8.462 3.847 3.847 8.462 3.847h554.87q4.616 0 8.462-3.847 3.847-3.846 3.847-8.462v-382.667h50.255v382.667q0 25.788-18.388 44.176-18.387 18.388-44.176 18.388h-554.87ZM320.41-288.514v-50.254h299.589v50.254H320.41Zm0-123.384v-50.255h299.589v50.255H320.41Zm0-123.385v-50.255h299.589v50.255H320.41Zm375.539-86.616v-84.051h-84.051v-50.255h84.051V-840h50.255v83.795h83.795v50.255h-83.795v84.051h-50.255Z"/></svg>